<svg width="60" height="60" viewBox="0 0 60 60" fill="none" xmlns="http://www.w3.org/2000/svg">
<path d="M59.1211 25.2395H55.2383C54.7528 25.2395 54.3594 25.6329 54.3594 26.1184V29.0293C54.3594 29.08 54.3182 29.1211 54.2675 29.1211H41.6484C41.1629 29.1211 40.7695 29.5145 40.7695 30V33.8829C40.7695 34.3684 41.1629 34.7618 41.6484 34.7618H46.5938V37.7657V51.3555V54.3595H30.9707C30.92 54.3595 30.8789 54.3183 30.8789 54.2677V45.5313C30.8789 45.0458 30.4855 44.6524 30 44.6524H26.1172C25.6317 44.6524 25.2383 45.0458 25.2383 45.5313V54.2677C25.2383 54.3184 25.1971 54.3595 25.1464 54.3595H24.084V52.293C24.084 51.5968 23.6898 50.9917 23.1134 50.6869V48.4434C23.1134 46.353 21.4126 44.6524 19.3222 44.6524C17.2318 44.6524 15.5312 46.353 15.5312 48.4434V50.6869C14.9548 50.9917 14.5605 51.5968 14.5605 52.293V54.3595H5.73246C5.68172 54.3595 5.64059 54.3183 5.64059 54.2677V44.4689H13.4981C14.518 44.4689 15.3477 43.6392 15.3477 42.6193V34.7619H25.1464C25.1972 34.7619 25.2383 34.8032 25.2383 34.8537V37.7658C25.2383 38.2513 25.6317 38.6447 26.1172 38.6447H30C30.4855 38.6447 30.8789 38.2513 30.8789 37.7658V34.8537C30.8789 34.803 30.9202 34.7619 30.9707 34.7619H33.8828C34.3683 34.7619 34.7617 34.3685 34.7617 33.883V30C34.7617 29.5145 34.3683 29.1211 33.8828 29.1211H30.9707C30.92 29.1211 30.8789 29.0798 30.8789 29.0293V26.1171C30.8789 25.6316 30.4855 25.2382 30 25.2382H26.1172C25.6317 25.2382 25.2383 25.6316 25.2383 26.1171V29.0293C25.2383 29.08 25.1971 29.1211 25.1464 29.1211H23.9334C23.4479 29.1211 23.0545 29.5145 23.0545 30C23.0545 30.4855 23.4479 30.8789 23.9334 30.8789H25.1464C26.1663 30.8789 26.9961 30.0492 26.9961 29.0293V26.996H29.1211V29.0293C29.1211 30.0492 29.9508 30.8789 30.9707 30.8789H33.0039V33.004H30.9707C29.9508 33.004 29.1211 33.8337 29.1211 34.8536V36.8868H26.9961V34.8536C26.9961 33.8337 26.1663 33.004 25.1464 33.004H5.73246C4.71258 33.004 3.88277 33.8337 3.88277 34.8536V54.2675C3.88277 55.2874 4.71258 56.1172 5.73246 56.1172H25.1464C26.1663 56.1172 26.9961 55.2874 26.9961 54.2675V46.4101H29.1211V54.2675C29.1211 55.2874 29.9508 56.1172 30.9707 56.1172H54.2675C55.2874 56.1172 56.1172 55.2874 56.1172 54.2675V34.8536C56.1172 33.8337 55.2874 33.004 54.2675 33.004H42.5273V30.8789H54.2675C55.2874 30.8789 56.1172 30.0492 56.1172 29.0293V26.9973H58.2422V58.1504C58.2422 58.2011 58.2009 58.2422 58.1504 58.2422H1.84957C1.79895 58.2422 1.75781 58.2009 1.75781 58.1504V1.84957C1.75781 1.79906 1.79906 1.75781 1.84957 1.75781H47.6563C48.1418 1.75781 48.5352 1.36441 48.5352 0.878906C48.5352 0.393398 48.1418 0 47.6563 0H1.84957C0.829687 0 0 0.829687 0 1.84957V58.1504C0 59.1703 0.829687 60 1.84957 60H58.1504C59.1703 60 60 59.1703 60 58.1504V26.1184C60 25.6329 59.6066 25.2395 59.1211 25.2395ZM5.73246 34.7618H8.73633V36.795C8.73633 37.2805 9.12973 37.6739 9.61523 37.6739C10.1007 37.6739 10.4941 37.2805 10.4941 36.795V34.7618H13.5899V42.6192C13.5899 42.6698 13.5486 42.711 13.4981 42.711H5.64059V34.8536C5.64059 34.8029 5.68172 34.7618 5.73246 34.7618ZM19.3222 46.4101C20.4434 46.4101 21.3555 47.3222 21.3555 48.4433V50.4766H17.2891V48.4433C17.289 47.3222 18.2011 46.4101 19.3222 46.4101ZM16.3184 54.3594V52.2929C16.3184 52.2607 16.3447 52.2343 16.377 52.2343H22.2676C22.2998 52.2343 22.3262 52.2607 22.3262 52.2929V54.3594H16.3184ZM54.3594 50.4765H48.3516V38.6446H54.3595V50.4765H54.3594ZM54.2675 54.3594H48.3516V52.2343H54.3595V54.2675C54.3594 54.3183 54.3183 54.3594 54.2675 54.3594ZM54.3594 34.8536V36.8868H48.3516V34.7618H54.2675C54.3183 34.7618 54.3594 34.8029 54.3594 34.8536Z" fill="#B9B900"/>
<path d="M58.1504 0H51.1719C50.6864 0 50.293 0.393398 50.293 0.878906C50.293 1.36441 50.6864 1.75781 51.1719 1.75781H58.1504C58.201 1.75781 58.2422 1.79906 58.2422 1.84957V17.4745L56.1172 17.4746V5.73246C56.1172 4.71258 55.2874 3.88277 54.2675 3.88277H30.9706C29.9508 3.88277 29.1211 4.71258 29.1211 5.73246V17.4727H26.9961V5.73246C26.9961 4.71258 26.1663 3.88277 25.1464 3.88277H5.73244C4.71256 3.88277 3.88275 4.71258 3.88275 5.73246V29.0293C3.88275 30.0492 4.71256 30.8789 5.73244 30.8789H20.4179C20.9034 30.8789 21.2968 30.4855 21.2968 30C21.2968 29.5145 20.9034 29.1211 20.4179 29.1211H5.73244C5.6817 29.1211 5.64056 29.0798 5.64056 29.0293V5.73246C5.64056 5.68172 5.68181 5.64059 5.73244 5.64059H7.76564V23.2383C7.76564 24.2399 8.58045 25.0547 9.58205 25.0547H21.2969C22.2985 25.0547 23.1133 24.2399 23.1133 23.2383V5.64059H25.1465C25.1973 5.64059 25.2384 5.68184 25.2384 5.73246V18.3516C25.2384 18.8371 25.6318 19.2305 26.1173 19.2305H30C30.4855 19.2305 30.8789 18.8371 30.8789 18.3516V5.73246C30.8789 5.68172 30.9201 5.64059 30.9706 5.64059H36.8866V7.70707C36.8866 8.70867 37.7014 9.52348 38.703 9.52348H48.4765C49.4781 9.52348 50.2929 8.70867 50.2929 7.70707V5.64059H54.2674C54.3181 5.64059 54.3593 5.68184 54.3593 5.73246V18.3536C54.3593 18.5866 54.4519 18.8101 54.6166 18.9751C54.7815 19.1399 55.005 19.2325 55.2382 19.2325L59.121 19.2323C59.6065 19.2323 59.9999 18.8388 59.9999 18.3534V1.84957C60 0.829687 59.1703 0 58.1504 0V0ZM17.4726 5.64059V7.70707C17.4726 7.7393 17.4463 7.76566 17.414 7.76566H13.4648C13.4326 7.76566 13.4062 7.7393 13.4062 7.70707V5.64059H17.4726ZM21.2968 23.2969H9.58205C9.54982 23.2969 9.52345 23.2705 9.52345 23.2383V13.4062H21.3555V23.2383C21.3554 23.2705 21.3292 23.2969 21.2968 23.2969ZM21.3554 11.6484H9.52345V5.64059H11.6484V7.70707C11.6484 8.70867 12.4632 9.52348 13.4648 9.52348H17.414C18.4156 9.52348 19.2304 8.70867 19.2304 7.70707V5.64059H21.3555V11.6484H21.3554ZM48.5352 7.70707C48.5352 7.7393 48.5088 7.76566 48.4766 7.76566H38.7031C38.6709 7.76566 38.6446 7.7393 38.6446 7.70707V5.64059H48.5352V7.70707Z" fill="#B9B900"/>
<path d="M51.3554 43.0128C51.8409 43.0128 52.2343 42.6194 52.2343 42.1339V41.1631C52.2343 40.6776 51.8409 40.2842 51.3554 40.2842C50.8699 40.2842 50.4765 40.6776 50.4765 41.1631V42.1339C50.4765 42.6194 50.87 43.0128 51.3554 43.0128Z" fill="#B9B900"/>
<path d="M51.3554 48.837C51.8409 48.837 52.2343 48.4436 52.2343 47.9581V46.9873C52.2343 46.5018 51.8409 46.1084 51.3554 46.1084C50.8699 46.1084 50.4765 46.5018 50.4765 46.9873V47.9581C50.4765 48.4436 50.87 48.837 51.3554 48.837Z" fill="#B9B900"/>
<path d="M50.4179 21.1719C51.4195 21.1719 52.2343 20.3571 52.2343 19.3555V13.4648C52.2343 12.4632 51.4195 11.6484 50.4179 11.6484H36.7617C35.7601 11.6484 34.9453 12.4632 34.9453 13.4648V19.3555C34.9453 20.3571 35.7601 21.1719 36.7617 21.1719H50.4179ZM46.5938 13.4062V15.4726C46.5938 15.5048 46.5674 15.5312 46.5352 15.5312H40.6445C40.6123 15.5312 40.5859 15.5048 40.5859 15.4726V13.4062H46.5938ZM36.7031 19.3555V13.4648C36.7031 13.4326 36.7295 13.4062 36.7617 13.4062H38.8281V15.4726C38.8281 16.4742 39.6429 17.289 40.6445 17.289H46.5352C47.5368 17.289 48.3516 16.4742 48.3516 15.4726V13.4062H50.418C50.4503 13.4062 50.4766 13.4326 50.4766 13.4648V19.3555C50.4766 19.3877 50.4503 19.4141 50.418 19.4141H36.7617C36.7295 19.4141 36.7031 19.3877 36.7031 19.3555Z" fill="#B9B900"/>
</svg>
