<svg width="60" height="60" viewBox="0 0 60 60" fill="none" xmlns="http://www.w3.org/2000/svg">
<g clip-path="url(#clip0_306_85)">
<path d="M59.0921 57.3019C58.6062 57.3019 58.2123 57.6957 58.2123 58.1817V58.2403H58.1536C57.6677 58.2403 57.2738 58.6341 57.2738 59.1201C57.2738 59.6062 57.6677 60 58.1536 60H59.0921C59.5779 60 59.9719 59.6062 59.9719 59.1201V58.1817C59.9719 57.6957 59.5779 57.3019 59.0921 57.3019Z" fill="#B9B900"/>
<path d="M48.4454 58.2404H46.5037C46.0178 58.2404 45.6239 58.6342 45.6239 59.1202C45.6239 59.6062 46.0178 60 46.5037 60H48.4454C48.9313 60 49.3252 59.6062 49.3252 59.1202C49.3252 58.6342 48.9314 58.2404 48.4454 58.2404Z" fill="#B9B900"/>
<path d="M42.6205 58.2404H40.6789C40.193 58.2404 39.7991 58.6342 39.7991 59.1202C39.7991 59.6062 40.193 60 40.6789 60H42.6205C43.1064 60 43.5003 59.6062 43.5003 59.1202C43.5003 58.6342 43.1064 58.2404 42.6205 58.2404Z" fill="#B9B900"/>
<path d="M36.7957 58.2404H34.854C34.3681 58.2404 33.9742 58.6342 33.9742 59.1202C33.9742 59.6062 34.3681 60 34.854 60H36.7957C37.2815 60 37.6755 59.6062 37.6755 59.1202C37.6755 58.6342 37.2817 58.2404 36.7957 58.2404Z" fill="#B9B900"/>
<path d="M30.9708 58.2404H29.9413V55.3868C29.9413 54.9008 29.5474 54.507 29.0615 54.507C28.5756 54.507 28.1817 54.9008 28.1817 55.3868V58.2404H13.9875V44.9848H28.1817V51.1638C28.1817 51.6498 28.5756 52.0436 29.0615 52.0436C29.5474 52.0436 29.9413 51.6498 29.9413 51.1638V30.9666C29.9413 30.4806 29.5474 30.0868 29.0615 30.0868H1.78762V29.0573C1.78762 28.5713 1.3937 28.1775 0.907817 28.1775C0.421932 28.1775 0.0280151 28.5713 0.0280151 29.0573V59.1202C0.0280151 59.6062 0.421932 60 0.907817 60H30.9708C31.4566 60 31.8506 59.6062 31.8506 59.1202C31.8506 58.6342 31.4566 58.2404 30.9708 58.2404ZM1.78762 47.9174V31.8464H12.2279V43.2953C9.8588 43.6728 7.9833 45.5484 7.60581 47.9174H1.78762ZM12.2279 45.088V47.9174H9.39779C9.72894 46.5204 10.8312 45.4193 12.2279 45.088ZM12.2279 55.4251H9.39779C9.72894 54.0282 10.8312 52.927 12.2279 52.5956V55.4251ZM24.4279 43.2252H21.5984C21.9297 41.8283 23.0308 40.726 24.4279 40.3949V43.2252ZM28.1817 43.2252H26.1875V39.4127C26.1875 38.9267 25.7935 38.5329 25.3077 38.5329C22.5346 38.5329 20.2289 40.5693 19.8057 43.2252H13.9875V31.8464H28.1817V43.2252ZM1.84627 58.2404H1.78762V58.1818V49.677H12.2279V50.8029C9.5721 51.2261 7.53566 53.5319 7.53566 56.3049C7.53566 56.7909 7.92957 57.1847 8.41546 57.1847H12.2279V58.2404H1.84627Z" fill="#B9B900"/>
<path d="M54.2704 58.2404H52.3287C51.8428 58.2404 51.4489 58.6342 51.4489 59.1202C51.4489 59.6062 51.8428 60 52.3287 60H54.2704C54.7563 60 55.1502 59.6062 55.1502 59.1202C55.1502 58.6342 54.7563 58.2404 54.2704 58.2404Z" fill="#B9B900"/>
<path d="M0.907817 26.0538C1.3937 26.0538 1.78762 25.66 1.78762 25.174V23.2323C1.78762 22.7463 1.3937 22.3525 0.907817 22.3525C0.421932 22.3525 0.0280151 22.7463 0.0280151 23.2323V25.174C0.0280151 25.6599 0.421932 26.0538 0.907817 26.0538Z" fill="#B9B900"/>
<path d="M0.907817 14.404C1.3937 14.404 1.78762 14.0102 1.78762 13.5242V11.5826C1.78762 11.0966 1.3937 10.7028 0.907817 10.7028C0.421932 10.7028 0.0280151 11.0966 0.0280151 11.5826V13.5242C0.0280151 14.0102 0.421932 14.404 0.907817 14.404Z" fill="#B9B900"/>
<path d="M0.907817 8.57907C1.3937 8.57907 1.78762 8.18527 1.78762 7.69927V5.75761C1.78762 5.27161 1.3937 4.87781 0.907817 4.87781C0.421932 4.87781 0.0280151 5.27161 0.0280151 5.75761V7.69927C0.0280151 8.18516 0.421932 8.57907 0.907817 8.57907Z" fill="#B9B900"/>
<path d="M0.907817 20.2289C1.3937 20.2289 1.78762 19.8351 1.78762 19.3491V17.4074C1.78762 16.9214 1.3937 16.5276 0.907817 16.5276C0.421932 16.5276 0.0280151 16.9214 0.0280151 17.4074V19.3491C0.0280151 19.8351 0.421932 20.2289 0.907817 20.2289Z" fill="#B9B900"/>
<path d="M0.907816 2.75421C1.3937 2.75421 1.78762 2.36041 1.78762 1.87441V1.81576H1.84627C2.33216 1.81576 2.72607 1.42196 2.72607 0.935954C2.72607 0.449951 2.33216 0.0561523 1.84627 0.0561523H0.907816C0.421932 0.0561523 0.0280151 0.449951 0.0280151 0.935954V1.87441C0.0280151 2.36029 0.421932 2.75421 0.907816 2.75421Z" fill="#B9B900"/>
<path d="M40.6789 1.81576H42.6206C43.1065 1.81576 43.5004 1.42196 43.5004 0.935954C43.5004 0.449951 43.1065 0.0561523 42.6206 0.0561523H40.6789C40.1931 0.0561523 39.7991 0.449951 39.7991 0.935954C39.7991 1.42196 40.1931 1.81576 40.6789 1.81576Z" fill="#B9B900"/>
<path d="M34.8541 1.81576H36.7958C37.2817 1.81576 37.6756 1.42196 37.6756 0.935954C37.6756 0.449951 37.2817 0.0561523 36.7958 0.0561523H34.8541C34.3682 0.0561523 33.9743 0.449951 33.9743 0.935954C33.9743 1.42196 34.3682 1.81576 34.8541 1.81576Z" fill="#B9B900"/>
<path d="M5.72959 1.81576H7.67126C8.15714 1.81576 8.55106 1.42196 8.55106 0.935954C8.55106 0.449951 8.15714 0.0561523 7.67126 0.0561523H5.72959C5.24371 0.0561523 4.84979 0.449951 4.84979 0.935954C4.84979 1.42196 5.24371 1.81576 5.72959 1.81576Z" fill="#B9B900"/>
<path d="M11.5545 1.81576H13.4961C13.982 1.81576 14.3759 1.42196 14.3759 0.935954C14.3759 0.449951 13.982 0.0561523 13.4961 0.0561523H11.5545C11.0686 0.0561523 10.6747 0.449951 10.6747 0.935954C10.6747 1.42196 11.0686 1.81576 11.5545 1.81576Z" fill="#B9B900"/>
<path d="M30.9708 0.0561523H29.0291C28.5432 0.0561523 28.1493 0.449951 28.1493 0.935954C28.1493 1.42196 28.5432 1.81576 29.0291 1.81576H30.9708C31.4567 1.81576 31.8506 1.42196 31.8506 0.935954C31.8506 0.449951 31.4567 0.0561523 30.9708 0.0561523Z" fill="#B9B900"/>
<path d="M23.2042 1.81576H25.1459C25.6318 1.81576 26.0257 1.42196 26.0257 0.935954C26.0257 0.449951 25.6318 0.0561523 25.1459 0.0561523H23.2042C22.7183 0.0561523 22.3244 0.449951 22.3244 0.935954C22.3244 1.42196 22.7183 1.81576 23.2042 1.81576Z" fill="#B9B900"/>
<path d="M17.3793 1.81576H19.321C19.8069 1.81576 20.2008 1.42196 20.2008 0.935954C20.2008 0.449951 19.8069 0.0561523 19.321 0.0561523H17.3793C16.8934 0.0561523 16.4995 0.449951 16.4995 0.935954C16.4995 1.42196 16.8934 1.81576 17.3793 1.81576Z" fill="#B9B900"/>
<path d="M59.092 28.1775C58.6061 28.1775 58.2122 28.5713 58.2122 29.0573V30.999C58.2122 31.485 58.6061 31.8788 59.092 31.8788C59.5779 31.8788 59.9718 31.485 59.9718 30.999V29.0573C59.9718 28.5714 59.5779 28.1775 59.092 28.1775Z" fill="#B9B900"/>
<path d="M59.092 34.0022C58.6061 34.0022 58.2122 34.396 58.2122 34.882V36.8237C58.2122 37.3097 58.6061 37.7035 59.092 37.7035C59.5779 37.7035 59.9718 37.3097 59.9718 36.8237V34.882C59.9718 34.3961 59.5779 34.0022 59.092 34.0022Z" fill="#B9B900"/>
<path d="M59.092 22.3525C58.6061 22.3525 58.2122 22.7463 58.2122 23.2323V25.174C58.2122 25.66 58.6061 26.0538 59.092 26.0538C59.5779 26.0538 59.9718 25.66 59.9718 25.174V23.2323C59.9718 22.7463 59.5779 22.3525 59.092 22.3525Z" fill="#B9B900"/>
<path d="M59.092 16.5277C58.6061 16.5277 58.2122 16.9215 58.2122 17.4075V19.3492C58.2122 19.8352 58.6061 20.229 59.092 20.229C59.5779 20.229 59.9718 19.8352 59.9718 19.3492V17.4075C59.9718 16.9215 59.5779 16.5277 59.092 16.5277Z" fill="#B9B900"/>
<path d="M59.092 45.6521C58.6061 45.6521 58.2122 46.0459 58.2122 46.5319V48.4736C58.2122 48.9596 58.6061 49.3534 59.092 49.3534C59.5779 49.3534 59.9718 48.9596 59.9718 48.4736V46.5319C59.9718 46.0459 59.5779 45.6521 59.092 45.6521Z" fill="#B9B900"/>
<path d="M59.092 51.4769C58.6061 51.4769 58.2122 51.8707 58.2122 52.3567V54.2984C58.2122 54.7844 58.6061 55.1782 59.092 55.1782C59.5779 55.1782 59.9718 54.7844 59.9718 54.2984V52.3567C59.9718 51.8708 59.5779 51.4769 59.092 51.4769Z" fill="#B9B900"/>
<path d="M59.092 39.8271C58.6061 39.8271 58.2122 40.2209 58.2122 40.707V42.6486C58.2122 43.1346 58.6061 43.5284 59.092 43.5284C59.5779 43.5284 59.9718 43.1346 59.9718 42.6486V40.707C59.9718 40.2209 59.5779 39.8271 59.092 39.8271Z" fill="#B9B900"/>
<path d="M59.7123 0.255846C59.5474 0.0918513 59.3244 0 59.092 0C59.0903 0 59.0885 0 59.0867 0L46.5038 0.05619C46.0179 0.05619 45.624 0.449989 45.624 0.935992C45.624 1.42199 46.0179 1.81579 46.5038 1.81579H48.4455C48.5827 1.81579 48.712 1.78353 48.8278 1.72746V10.3205C48.8278 10.8065 49.2217 11.2003 49.7076 11.2003H58.3007C58.2447 11.316 58.2123 11.4454 58.2123 11.5826V13.5243C58.2123 14.0103 58.6062 14.4041 59.0921 14.4041C59.578 14.4041 59.9719 14.0103 59.9719 13.5243V7.69932V5.75766V1.87445V0.935992V0.879802C59.9718 0.64554 59.8784 0.421014 59.7123 0.255846ZM58.2122 9.44074H50.5873V1.81051L52.1719 1.80101C52.2229 1.81016 52.2751 1.81568 52.3287 1.81568H54.2704C54.3461 1.81568 54.4192 1.80512 54.4894 1.78705L57.8667 1.76688C57.9567 1.79796 58.053 1.81568 58.1537 1.81568H58.2123V1.87433V5.75766V7.69932V9.44074H58.2122Z" fill="#B9B900"/>
<path d="M45.895 18.7667V15.0131C45.8952 14.5338 45.4938 14.1331 45.0152 14.1331H41.2614C40.7755 14.1331 40.3816 14.5269 40.3816 15.0129C40.3816 15.4989 40.7755 15.8927 41.2614 15.8927H42.8912L32.1932 26.5906C31.8496 26.9343 31.8496 27.4913 32.1932 27.8348C32.365 28.0066 32.5902 28.0925 32.8153 28.0925C33.0404 28.0925 33.2657 28.0066 33.4374 27.8348L44.1354 17.1368V18.7666C44.1354 19.2526 44.5293 19.6464 45.0152 19.6464C45.5011 19.6464 45.895 19.2526 45.895 18.7667Z" fill="#B9B900"/>
</g>
<defs>
<clipPath id="clip0_306_85">
<rect width="60" height="60" fill="white"/>
</clipPath>
</defs>
</svg>
