<svg width="60" height="60" viewBox="0 0 60 60" fill="none" xmlns="http://www.w3.org/2000/svg">
<path d="M22.4853 38.3953H48.7867C49.2731 38.3953 49.6673 38.001 49.6673 37.5146V16.8493C49.6673 16.5791 49.5432 16.3237 49.3308 16.1569L36.1801 5.82418C35.8606 5.57326 35.4114 5.57326 35.0919 5.82418L21.9412 16.1569C21.7287 16.3238 21.6047 16.5791 21.6047 16.8493V37.5146C21.6047 38.001 21.9989 38.3953 22.4853 38.3953ZM31.82 36.634V23.3659H39.452V36.634H31.82ZM23.3659 17.2774L35.636 7.63662L47.9061 17.2774V36.634H41.2133V22.4853C41.2133 21.9989 40.8191 21.6047 40.3327 21.6047H30.9393C30.4529 21.6047 30.0587 21.9989 30.0587 22.4853V36.634H23.3659V17.2774Z" fill="#B9B900"/>
<path d="M54.4227 36.634C53.9362 36.634 53.5421 37.0283 53.5421 37.5147C53.5421 38.001 53.9362 38.3953 54.4227 38.3953H58.18C58.6665 38.3953 59.0607 38.001 59.0607 37.5147C59.0607 37.0283 58.6665 36.634 58.18 36.634H57.182V7.39724H58.18C58.6665 7.39724 59.0607 7.00295 59.0607 6.51661C59.0607 6.03027 58.6665 5.63599 58.18 5.63599H54.4227C53.9362 5.63599 53.5421 6.03027 53.5421 6.51661C53.5421 7.00295 53.9362 7.39724 54.4227 7.39724H55.4207V36.634H54.4227Z" fill="#B9B900"/>
<path d="M59.1194 45.0881H48.7867C48.3002 45.0881 47.9061 45.4823 47.9061 45.9687C47.9061 46.455 48.3002 46.8493 48.7867 46.8493H58.2387V58.2387H53.4247V55.362C53.4247 54.8757 53.0305 54.4814 52.544 54.4814C52.0576 54.4814 51.6634 54.8757 51.6634 55.362V58.2387H45.91V54.4227C45.91 53.9364 45.5158 53.5421 45.0294 53.5421C44.5429 53.5421 44.1487 53.9364 44.1487 54.4227V58.2387H38.3953V55.362C38.3953 54.8757 38.0011 54.4814 37.5147 54.4814C37.0282 54.4814 36.6341 54.8757 36.6341 55.362V58.2387H30.8806V54.4227C30.8806 53.9364 30.4865 53.5421 30 53.5421C29.5135 53.5421 29.1194 53.9364 29.1194 54.4227V58.2387H23.3659V55.362C23.3659 54.8757 22.9718 54.4814 22.4853 54.4814C21.9989 54.4814 21.6047 54.8757 21.6047 55.362V58.2387H15.8513V54.4227C15.8513 53.9364 15.4571 53.5421 14.9706 53.5421C14.4842 53.5421 14.09 53.9364 14.09 54.4227V58.2387H8.33659V55.362C8.33659 54.8757 7.94243 54.4814 7.45597 54.4814C6.96951 54.4814 6.57534 54.8757 6.57534 55.362V58.2387H1.76125V53.4217C1.78074 53.423 1.80012 53.4247 1.81996 53.4247H4.63796C5.12442 53.4247 5.51859 53.0304 5.51859 52.544C5.51859 52.0577 5.12442 51.6634 4.63796 51.6634H1.81996C1.80012 51.6634 1.78074 51.665 1.76125 51.6663V45.907C1.78074 45.9083 1.80012 45.91 1.81996 45.91H6.51663C7.00309 45.91 7.39726 45.5157 7.39726 45.0294C7.39726 44.543 7.00309 44.1487 6.51663 44.1487H1.81996C1.80012 44.1487 1.78074 44.1504 1.76125 44.1517V38.3924C1.78074 38.3937 1.80012 38.3953 1.81996 38.3953H4.63796C5.12442 38.3953 5.51859 38.001 5.51859 37.5147C5.51859 37.0283 5.12442 36.6341 4.63796 36.6341H1.81996C1.80012 36.6341 1.78074 36.6357 1.76125 36.637V30.8777C1.78074 30.879 1.80012 30.8806 1.81996 30.8806H6.51663C7.00309 30.8806 7.39726 30.4863 7.39726 30C7.39726 29.5137 7.00309 29.1194 6.51663 29.1194H1.81996C1.80012 29.1194 1.78074 29.121 1.76125 29.1223V23.363C1.78074 23.3643 1.80012 23.3659 1.81996 23.3659H4.63796C5.12442 23.3659 5.51859 22.9717 5.51859 22.4853C5.51859 21.999 5.12442 21.6047 4.63796 21.6047H1.81996C1.80012 21.6047 1.78074 21.6063 1.76125 21.6076V15.8483C1.78074 15.8496 1.80012 15.8513 1.81996 15.8513H6.51663C7.00309 15.8513 7.39726 15.457 7.39726 14.9706C7.39726 14.4843 7.00309 14.09 6.51663 14.09H1.81996C1.80012 14.09 1.78074 14.0917 1.76125 14.093V8.33366C1.78074 8.33495 1.80012 8.33659 1.81996 8.33659H4.63796C5.12442 8.33659 5.51859 7.94231 5.51859 7.45597C5.51859 6.96963 5.12442 6.57534 4.63796 6.57534H1.81996C1.80012 6.57534 1.78074 6.57699 1.76125 6.57828V1.76125H13.1507V45.9687C13.1507 46.455 13.5449 46.8493 14.0313 46.8493H44.4933C44.9798 46.8493 45.374 46.455 45.374 45.9687C45.374 45.4823 44.9798 45.0881 44.4933 45.0881H14.9119V0.880626C14.9119 0.394286 14.5178 0 14.0313 0H0.880626C0.394168 0 0 0.394286 0 0.880626V59.1194C0 59.6057 0.394168 60 0.880626 60H59.1194C59.6058 60 60 59.6057 60 59.1194V45.9687C60 45.4823 59.6058 45.0881 59.1194 45.0881Z" fill="#B9B900"/>
</svg>
