<svg width="172" height="57" viewBox="0 0 172 57" fill="none" xmlns="http://www.w3.org/2000/svg">
<path d="M72.1641 44.3203V46H60.5234V44.3203H61.0312C62.0339 44.3203 62.8281 44.138 63.4141 43.7734C64.013 43.3958 64.3125 42.6211 64.3125 41.4492V21.9961C64.3125 20.8242 64.013 20.056 63.4141 19.6914C62.8281 19.3138 62.0339 19.125 61.0312 19.125H60.5234V17.4453H72.1641V19.125H71.6367C70.6471 19.125 69.8529 19.3073 69.2539 19.6719C68.6549 20.0365 68.3555 20.8112 68.3555 21.9961V41.4492C68.3555 42.6341 68.6549 43.4089 69.2539 43.7734C69.8529 44.138 70.6471 44.3203 71.6367 44.3203H72.1641ZM85.4453 44.3203H85.5625V46H74.8008V44.3203H75.1328C76.1354 44.3203 76.9297 44.138 77.5156 43.7734C78.1146 43.4089 78.4141 42.6341 78.4141 41.4492V28.9688C78.4141 27.849 78.1081 27.1133 77.4961 26.7617C76.8841 26.4102 76.0964 26.2344 75.1328 26.2344H75.0156V24.5547H81.4805L82.0078 27.7969H82.2031C83.0104 26.3646 83.9089 25.401 84.8984 24.9062C85.888 24.4115 87.0729 24.1641 88.4531 24.1641C90.5885 24.1641 92.2357 24.7826 93.3945 26.0195C94.5794 27.3216 95.1719 29.3138 95.1719 31.9961V41.4492C95.1719 42.6211 95.4323 43.3958 95.9531 43.7734C96.487 44.138 97.2487 44.3203 98.2383 44.3203H98.375V46H91.4023V32.1914C91.4023 30.4466 91.0768 29.099 90.4258 28.1484C89.7747 27.1979 88.6354 26.7227 87.0078 26.7227C86.0964 26.7227 85.3281 26.8984 84.7031 27.25C84.0911 27.6016 83.5964 28.0768 83.2188 28.6758C82.8411 29.2747 82.5677 29.9648 82.3984 30.7461C82.2422 31.5273 82.1641 32.3477 82.1641 33.207V41.6445C82.1641 42.7513 82.4635 43.474 83.0625 43.8125C83.6615 44.151 84.4557 44.3203 85.4453 44.3203ZM110.113 44.2812C110.595 44.2812 111.038 44.2552 111.441 44.2031C111.845 44.151 112.255 44.0859 112.672 44.0078V45.7656C112.307 45.9349 111.767 46.0781 111.051 46.1953C110.348 46.3255 109.703 46.3906 109.117 46.3906C107.073 46.3906 105.602 45.9349 104.703 45.0234C103.779 44.0859 103.316 42.4779 103.316 40.1992V26.8398H100.27V25.2383C100.751 25.2383 101.279 25.1406 101.852 24.9453C102.438 24.75 102.952 24.4245 103.395 23.9688C103.85 23.474 104.215 22.888 104.488 22.2109C104.775 21.5208 105.022 20.6615 105.23 19.6328H107.066V24.5547H112.301V26.8398H107.066V40.3164C107.066 41.6836 107.34 42.6862 107.887 43.3242C108.447 43.9622 109.189 44.2812 110.113 44.2812ZM124.332 26.1562C122.861 26.1562 121.884 26.5469 121.402 27.3281C120.921 28.0964 120.68 29.1576 120.68 30.5117C119.573 30.5117 118.727 30.3229 118.141 29.9453C117.568 29.5677 117.281 28.9167 117.281 27.9922C117.281 27.3021 117.47 26.7161 117.848 26.2344C118.225 25.7526 118.746 25.3555 119.41 25.043C120.061 24.7435 120.823 24.5221 121.695 24.3789C122.568 24.2357 123.499 24.1641 124.488 24.1641C125.712 24.1641 126.78 24.2878 127.691 24.5352C128.603 24.7695 129.365 25.1602 129.977 25.707C131.201 26.8008 131.812 28.5911 131.812 31.0781V41.4492C131.812 42.5169 131.995 43.2656 132.359 43.6953C132.724 44.112 133.368 44.3203 134.293 44.3203H134.41V46H129L128.375 42.5625H128.043C127.457 43.3438 126.891 44.0208 126.344 44.5938C125.797 45.1667 125.172 45.6094 124.469 45.9219C123.766 46.2344 122.88 46.3906 121.812 46.3906C120.927 46.3906 120.1 46.2604 119.332 46C118.577 45.7396 117.926 45.349 117.379 44.8281C116.819 44.2943 116.383 43.6302 116.07 42.8359C115.758 42.0417 115.602 41.0977 115.602 40.0039C115.602 37.8815 116.357 36.306 117.867 35.2773C119.378 34.2487 121.663 33.6888 124.723 33.5977L128.043 33.4805V31.0781C128.043 30.0625 127.952 29.1901 127.77 28.4609C127.6 27.7188 127.249 27.1523 126.715 26.7617C126.194 26.3581 125.4 26.1562 124.332 26.1562ZM119.488 40.1992C119.488 42.6862 120.569 43.9297 122.73 43.9297C124.371 43.9297 125.667 43.4284 126.617 42.4258C127.568 41.4102 128.043 40.056 128.043 38.3633V35.1211L125.484 35.2383C123.297 35.3294 121.734 35.7852 120.797 36.6055C120.328 37.0091 119.99 37.5169 119.781 38.1289C119.586 38.7279 119.488 39.418 119.488 40.1992ZM147.906 44.3203H148.023V46H137.262V44.3203H137.594C138.596 44.3203 139.391 44.138 139.977 43.7734C140.576 43.4089 140.875 42.6341 140.875 41.4492V28.9688C140.875 27.849 140.569 27.1133 139.957 26.7617C139.345 26.4102 138.557 26.2344 137.594 26.2344H137.477V24.5547H143.941L144.469 27.7969H144.664C145.471 26.3646 146.37 25.401 147.359 24.9062C148.349 24.4115 149.534 24.1641 150.914 24.1641C153.049 24.1641 154.697 24.7826 155.855 26.0195C157.04 27.3216 157.633 29.3138 157.633 31.9961V41.4492C157.633 42.6211 157.893 43.3958 158.414 43.7734C158.948 44.138 159.71 44.3203 160.699 44.3203H160.836V46H153.863V32.1914C153.863 30.4466 153.538 29.099 152.887 28.1484C152.236 27.1979 151.096 26.7227 149.469 26.7227C148.557 26.7227 147.789 26.8984 147.164 27.25C146.552 27.6016 146.057 28.0768 145.68 28.6758C145.302 29.2747 145.029 29.9648 144.859 30.7461C144.703 31.5273 144.625 32.3477 144.625 33.207V41.6445C144.625 42.7513 144.924 43.474 145.523 43.8125C146.122 44.151 146.917 44.3203 147.906 44.3203ZM164.449 43.5586C164.449 42.5951 164.677 41.9049 165.133 41.4883C165.589 41.0586 166.201 40.8438 166.969 40.8438C167.711 40.8438 168.316 41.0586 168.785 41.4883C169.254 41.9049 169.488 42.5951 169.488 43.5586C169.488 44.5091 169.254 45.1992 168.785 45.6289C168.329 46.0586 167.724 46.2734 166.969 46.2734C166.201 46.2734 165.589 46.0586 165.133 45.6289C164.677 45.1992 164.449 44.5091 164.449 43.5586Z" fill="white"/>
<path d="M41.6852 16.146C41.6852 19.2386 41.6852 39.2323 41.6852 41.6488H36.0546C36.0546 2.85522 36.0546 25.697 36.0546 11.8164L20.7948 0L20.7728 3.44497C20.7728 7.93277 20.7728 37.6573 20.7728 41.6417H13.9294C13.9294 28.1423 13.9294 22.1082 13.9294 8.52251L0 19.4615V46H4.47651C4.47651 46 4.45446 42.5263 4.45446 21.576L9.48226 17.7067C9.48226 51.2717 9.48226 39.4049 9.48226 46H25.2713C25.2713 29.2642 25.2713 23.863 25.2713 9.01876L31.3209 13.4994C31.3209 21.7558 31.3209 37.8155 31.3209 45.9928H46V19.4543L41.6852 16.146Z" fill="#D0D003"/>
</svg>
